# xmcd CD database file
#
# Track frame offsets:
#	150
#	21769
#	41493
#
# Disc length: 839 seconds
#
# Revision: 0
# Processed by: cddbd v1.5PL3 Copyright (c) Steve Scherf et al.
# Submitted via: CDex 1.50beta9
#
DISCID=1a034503
DTITLE=ROXVOX - YOKOHAMA CITY BLUES
DYEAR=2002
DGENRE=Jazz
TTITLE0=YOKOHAMA CITY BLUES
TTITLE1=ほんとの未来
TTITLE2=YOKOHAMA CITY BLUES（instrumental）
EXTD=YEAR: 2002
EXTT0=
EXTT1=
EXTT2=
PLAYORDER=
